<svg width="1115pt" height="321pt" viewBox="0.00 0.00 1115.00 321.00" xmlns="http://www.w3.org/2000/svg" xmlns:xlink="http://www.w3.org/1999/xlink">
<g id="graph0" class="graph" transform="scale(1 1) rotate(0) translate(4 317)">
<title>USB_Audio_Pipeline_PulseAudio</title>
<polygon fill="white" stroke="none" points="-4,4 -4,-317 1111.41,-317 1111.41,4 -4,4"/>
<g id="clust1" class="cluster">
<title>cluster_hardware</title>
<polygon fill="#c8e6c9" stroke="black" points="402.59,-222 402.59,-305 693.63,-305 693.63,-222 402.59,-222"/>
<text xml:space="preserve" text-anchor="middle" x="548.11" y="-288.4" font-family="Times,serif" font-size="14.00">HARDWARE</text>
</g>
<g id="clust2" class="cluster">
<title>cluster_kernel</title>
<polygon fill="#fff9c4" stroke="black" points="796.29,-197 796.29,-280 1099.41,-280 1099.41,-197 796.29,-197"/>
<text xml:space="preserve" text-anchor="middle" x="947.85" y="-263.4" font-family="Times,serif" font-size="14.00">KERNEL SPACE</text>
</g>
<g id="clust3" class="cluster">
<title>cluster_userspace</title>
<polygon fill="#e3f2fd" stroke="black" points="8,-8 8,-189 915.45,-189 915.45,-8 8,-8"/>
<text xml:space="preserve" text-anchor="middle" x="461.73" y="-172.4" font-family="Times,serif" font-size="14.00">USER SPACE</text>
</g>
<g id="clust4" class="cluster">
<title>cluster_dcamera</title>
<polygon fill="#e3f2fd" stroke="black" points="16,-16 16,-99 706.48,-99 706.48,-16 16,-16"/>
<text xml:space="preserve" text-anchor="middle" x="361.24" y="-82.4" font-family="Times,serif" font-size="14.00">Dcamera</text>
</g>
<!-- mic -->
<g id="node1" class="node">
<title>mic</title>
<path fill="#a5d6a7" stroke="black" d="M487.74,-269C487.74,-269 422.59,-269 422.59,-269 416.59,-269 410.59,-263 410.59,-257 410.59,-257 410.59,-245 410.59,-245 410.59,-239 416.59,-233 422.59,-233 422.59,-233 487.74,-233 487.74,-233 493.74,-233 499.74,-239 499.74,-245 499.74,-245 499.74,-257 499.74,-257 499.74,-263 493.74,-269 487.74,-269"/>
<text xml:space="preserve" text-anchor="middle" x="455.16" y="-246.8" font-family="Arial" font-size="14.00">Microphone</text>
</g>
<!-- usb_audio -->
<g id="node2" class="node">
<title>usb_audio</title>
<path fill="#a5d6a7" stroke="black" d="M673.63,-271.8C673.63,-271.8 613.15,-271.8 613.15,-271.8 607.15,-271.8 601.15,-265.8 601.15,-259.8 601.15,-259.8 601.15,-242.2 601.15,-242.2 601.15,-236.2 607.15,-230.2 613.15,-230.2 613.15,-230.2 673.63,-230.2 673.63,-230.2 679.63,-230.2 685.63,-236.2 685.63,-242.2 685.63,-242.2 685.63,-259.8 685.63,-259.8 685.63,-265.8 679.63,-271.8 673.63,-271.8"/>
<text xml:space="preserve" text-anchor="middle" x="643.39" y="-255.2" font-family="Arial" font-size="14.00">USB Audio</text>
<text xml:space="preserve" text-anchor="middle" x="643.39" y="-238.4" font-family="Arial" font-size="14.00">Device</text>
</g>
<!-- mic&#45;&gt;usb_audio -->
<g id="edge1" class="edge">
<title>mic-&gt;usb_audio</title>
<path fill="none" stroke="black" d="M499.77,-257C499.77,-257 589.21,-257 589.21,-257"/>
<polygon fill="black" stroke="black" points="589.21,-260.5 599.21,-257 589.21,-253.5 589.21,-260.5"/>
</g>
<!-- usb_audio&#45;&gt;mic -->
<g id="edge2" class="edge">
<title>usb_audio-&gt;mic</title>
<path fill="none" stroke="black" d="M600.68,-245C600.68,-245 511.51,-245 511.51,-245"/>
<polygon fill="black" stroke="black" points="511.51,-241.5 501.51,-245 511.51,-248.5 511.51,-241.5"/>
</g>
<!-- snd_usb -->
<g id="node3" class="node">
<title>snd_usb</title>
<path fill="#fff59d" stroke="black" d="M897.01,-244C897.01,-244 816.29,-244 816.29,-244 810.29,-244 804.29,-238 804.29,-232 804.29,-232 804.29,-220 804.29,-220 804.29,-214 810.29,-208 816.29,-208 816.29,-208 897.01,-208 897.01,-208 903.01,-208 909.01,-214 909.01,-220 909.01,-220 909.01,-232 909.01,-232 909.01,-238 903.01,-244 897.01,-244"/>
<text xml:space="preserve" text-anchor="middle" x="856.65" y="-221.8" font-family="Arial" font-size="14.00">snd-usb-audio</text>
</g>
<!-- usb_audio&#45;&gt;snd_usb -->
<g id="edge3" class="edge">
<title>usb_audio-&gt;snd_usb</title>
<path fill="none" stroke="black" d="M686.03,-239.4C686.03,-239.4 792.36,-239.4 792.36,-239.4"/>
<polygon fill="black" stroke="black" points="792.36,-242.9 802.36,-239.4 792.36,-235.9 792.36,-242.9"/>
<text xml:space="preserve" text-anchor="middle" x="751.38" y="-284" font-family="Arial" font-size="10.00">USB audio</text>
</g>
<!-- snd_usb&#45;&gt;usb_audio -->
<g id="edge4" class="edge">
<title>snd_usb-&gt;usb_audio</title>
<path fill="none" stroke="black" d="M803.93,-234.8C803.93,-234.8 697.37,-234.8 697.37,-234.8"/>
<polygon fill="black" stroke="black" points="697.37,-231.3 687.37,-234.8 697.37,-238.3 697.37,-231.3"/>
</g>
<!-- alsa -->
<g id="node4" class="node">
<title>alsa</title>
<path fill="#fff59d" stroke="black" d="M1079.41,-246.8C1079.41,-246.8 1025.14,-246.8 1025.14,-246.8 1019.14,-246.8 1013.14,-240.8 1013.14,-234.8 1013.14,-234.8 1013.14,-217.2 1013.14,-217.2 1013.14,-211.2 1019.14,-205.2 1025.14,-205.2 1025.14,-205.2 1079.41,-205.2 1079.41,-205.2 1085.41,-205.2 1091.41,-211.2 1091.41,-217.2 1091.41,-217.2 1091.41,-234.8 1091.41,-234.8 1091.41,-240.8 1085.41,-246.8 1079.41,-246.8"/>
<text xml:space="preserve" text-anchor="middle" x="1052.28" y="-230.2" font-family="Arial" font-size="14.00">ALSA</text>
<text xml:space="preserve" text-anchor="middle" x="1052.28" y="-213.4" font-family="Arial" font-size="14.00">/dev/snd/*</text>
</g>
<!-- snd_usb&#45;&gt;alsa -->
<g id="edge5" class="edge">
<title>snd_usb-&gt;alsa</title>
<path fill="none" stroke="black" d="M909.33,-220C909.33,-220 1001.34,-220 1001.34,-220"/>
<polygon fill="black" stroke="black" points="1001.34,-223.5 1011.34,-220 1001.34,-216.5 1001.34,-223.5"/>
</g>
<!-- alsa&#45;&gt;snd_usb -->
<g id="edge6" class="edge">
<title>alsa-&gt;snd_usb</title>
<path fill="none" stroke="black" d="M1012.69,-232C1012.69,-232 920.68,-232 920.68,-232"/>
<polygon fill="black" stroke="black" points="920.68,-228.5 910.68,-232 920.68,-235.5 920.68,-228.5"/>
</g>
<!-- pulseaudio -->
<g id="node5" class="node">
<title>pulseaudio</title>
<path fill="#bbdefb" stroke="black" d="M895.45,-153.8C895.45,-153.8 817.85,-153.8 817.85,-153.8 811.85,-153.8 805.85,-147.8 805.85,-141.8 805.85,-141.8 805.85,-124.2 805.85,-124.2 805.85,-118.2 811.85,-112.2 817.85,-112.2 817.85,-112.2 895.45,-112.2 895.45,-112.2 901.45,-112.2 907.45,-118.2 907.45,-124.2 907.45,-124.2 907.45,-141.8 907.45,-141.8 907.45,-147.8 901.45,-153.8 895.45,-153.8"/>
<text xml:space="preserve" text-anchor="middle" x="856.65" y="-137.2" font-family="Arial" font-size="14.00">PulseAudio</text>
<text xml:space="preserve" text-anchor="middle" x="856.65" y="-120.4" font-family="Arial" font-size="14.00">Sound Server</text>
</g>
<!-- alsa&#45;&gt;pulseaudio -->
<g id="edge7" class="edge">
<title>alsa-&gt;pulseaudio</title>
<path fill="none" stroke="black" d="M1039.41,-204.73C1039.41,-179.24 1039.41,-139.93 1039.41,-139.93 1039.41,-139.93 919.07,-139.93 919.07,-139.93"/>
<polygon fill="black" stroke="black" points="919.07,-136.43 909.07,-139.93 919.07,-143.43 919.07,-136.43"/>
<text xml:space="preserve" text-anchor="middle" x="961.08" y="-207" font-family="Arial" font-size="10.00">ALSA sink</text>
</g>
<!-- pulseaudio&#45;&gt;alsa -->
<g id="edge8" class="edge">
<title>pulseaudio-&gt;alsa</title>
<path fill="none" stroke="black" d="M907.72,-126.07C969.52,-126.07 1065.41,-126.07 1065.41,-126.07 1065.41,-126.07 1065.41,-193.29 1065.41,-193.29"/>
<polygon fill="black" stroke="black" points="1061.91,-193.29 1065.41,-203.29 1068.91,-193.29 1061.91,-193.29"/>
</g>
<!-- decoder -->
<g id="node6" class="node">
<title>decoder</title>
<path fill="#bbdefb" stroke="black" d="M122.18,-65.8C122.18,-65.8 36,-65.8 36,-65.8 30,-65.8 24,-59.8 24,-53.8 24,-53.8 24,-36.2 24,-36.2 24,-30.2 30,-24.2 36,-24.2 36,-24.2 122.18,-24.2 122.18,-24.2 128.18,-24.2 134.18,-30.2 134.18,-36.2 134.18,-36.2 134.18,-53.8 134.18,-53.8 134.18,-59.8 128.18,-65.8 122.18,-65.8"/>
<text xml:space="preserve" text-anchor="middle" x="79.09" y="-49.2" font-family="Arial" font-size="14.00">Audio decoder:</text>
<text xml:space="preserve" text-anchor="middle" x="79.09" y="-32.4" font-family="Arial" font-size="14.00">pcma</text>
</g>
<!-- pulseaudio&#45;&gt;decoder -->
<g id="edge9" class="edge">
<title>pulseaudio-&gt;decoder</title>
<path fill="none" stroke="black" d="M805.35,-139.93C632.1,-139.93 79.41,-139.93 79.41,-139.93 79.41,-139.93 79.41,-77.58 79.41,-77.58"/>
<polygon fill="black" stroke="black" points="82.91,-77.58 79.41,-67.58 75.91,-77.58 82.91,-77.58"/>
<text xml:space="preserve" text-anchor="middle" x="455.16" y="-147" font-family="Arial" font-size="10.00">monitor</text>
<text xml:space="preserve" text-anchor="middle" x="455.16" y="-135" font-family="Arial" font-size="10.00">source</text>
</g>
<!-- filter -->
<g id="node8" class="node">
<title>filter</title>
<path fill="#bbdefb" stroke="black" d="M310.03,-65.8C310.03,-65.8 205.18,-65.8 205.18,-65.8 199.18,-65.8 193.18,-59.8 193.18,-53.8 193.18,-53.8 193.18,-36.2 193.18,-36.2 193.18,-30.2 199.18,-24.2 205.18,-24.2 205.18,-24.2 310.03,-24.2 310.03,-24.2 316.03,-24.2 322.03,-30.2 322.03,-36.2 322.03,-36.2 322.03,-53.8 322.03,-53.8 322.03,-59.8 316.03,-65.8 310.03,-65.8"/>
<text xml:space="preserve" text-anchor="middle" x="257.6" y="-49.2" font-family="Arial" font-size="14.00">Audio filter</text>
<text xml:space="preserve" text-anchor="middle" x="257.6" y="-32.4" font-family="Arial" font-size="14.00">noise suppression</text>
</g>
<!-- decoder&#45;&gt;filter -->
<g id="edge10" class="edge">
<title>decoder-&gt;filter</title>
<path fill="none" stroke="black" d="M134.59,-45C134.59,-45 181.24,-45 181.24,-45"/>
<polygon fill="black" stroke="black" points="181.24,-48.5 191.24,-45 181.24,-41.5 181.24,-48.5"/>
</g>
<!-- resampler -->
<g id="node7" class="node">
<title>resampler</title>
<path fill="#bbdefb" stroke="black" d="M517.3,-60C517.3,-60 393.03,-60 393.03,-60 387.03,-60 381.03,-54 381.03,-48 381.03,-48 381.03,-36 381.03,-36 381.03,-30 387.03,-24 393.03,-24 393.03,-24 517.3,-24 517.3,-24 523.3,-24 529.3,-30 529.3,-36 529.3,-36 529.3,-48 529.3,-48 529.3,-54 523.3,-60 517.3,-60"/>
<text xml:space="preserve" text-anchor="middle" x="455.16" y="-37.8" font-family="Arial" font-size="14.00">Audio resampler:soxr</text>
</g>
<!-- encoder -->
<g id="node9" class="node">
<title>encoder</title>
<path fill="#bbdefb" stroke="black" d="M686.48,-65.8C686.48,-65.8 600.3,-65.8 600.3,-65.8 594.3,-65.8 588.3,-59.8 588.3,-53.8 588.3,-53.8 588.3,-36.2 588.3,-36.2 588.3,-30.2 594.3,-24.2 600.3,-24.2 600.3,-24.2 686.48,-24.2 686.48,-24.2 692.48,-24.2 698.48,-30.2 698.48,-36.2 698.48,-36.2 698.48,-53.8 698.48,-53.8 698.48,-59.8 692.48,-65.8 686.48,-65.8"/>
<text xml:space="preserve" text-anchor="middle" x="643.39" y="-49.2" font-family="Arial" font-size="14.00">Audio encoder:</text>
<text xml:space="preserve" text-anchor="middle" x="643.39" y="-32.4" font-family="Arial" font-size="14.00">pcma</text>
</g>
<!-- resampler&#45;&gt;encoder -->
<g id="edge12" class="edge">
<title>resampler-&gt;encoder</title>
<path fill="none" stroke="black" d="M529.56,-42.1C529.56,-42.1 576.31,-42.1 576.31,-42.1"/>
<polygon fill="black" stroke="black" points="576.31,-45.6 586.31,-42.1 576.31,-38.6 576.31,-45.6"/>
</g>
<!-- filter&#45;&gt;resampler -->
<g id="edge11" class="edge">
<title>filter-&gt;resampler</title>
<path fill="none" stroke="black" d="M322.29,-42.1C322.29,-42.1 369.22,-42.1 369.22,-42.1"/>
<polygon fill="black" stroke="black" points="369.22,-45.6 379.22,-42.1 369.22,-38.6 369.22,-45.6"/>
</g>
<!-- encoder&#45;&gt;pulseaudio -->
<g id="edge13" class="edge">
<title>encoder-&gt;pulseaudio</title>
<path fill="none" stroke="black" d="M692.41,-66.3C692.41,-90.32 692.41,-126.07 692.41,-126.07 692.41,-126.07 794.07,-126.07 794.07,-126.07"/>
<polygon fill="black" stroke="black" points="794.07,-129.57 804.07,-126.07 794.07,-122.57 794.07,-129.57"/>
</g>
</g>
</svg>